<?xml version="1.0" ?><svg viewBox="0 0 18.569 22.21" xmlns="http://www.w3.org/2000/svg"><g data-name="Layer 2" id="Layer_2"><g data-name="Layer 1" id="Layer_1-2"><path d="M17.35,21.539H15.427a3.029,3.029,0,0,0-3-2.689H9.174V16.818C17.6,16.614,21.728,6.117,15.728.2a.334.334,0,0,0-.475,0L13.579,1.875C6.852-3.969-2.218,5.11,3.624,11.83L1.949,13.505a.336.336,0,0,0,0,.475A9.673,9.673,0,0,0,8.5,16.818V18.85H5.255a3.028,3.028,0,0,0-3,2.689H.327a.336.336,0,0,0,0,.671H17.35A.336.336,0,0,0,17.35,21.539ZM4.1,2.826,5.824,4.552A7.353,7.353,0,0,0,4.468,6.814a12.272,12.272,0,0,0-1.94-.644A6.317,6.317,0,0,1,4.1,2.826ZM7.917.78a12.4,12.4,0,0,0,.645,1.941A7.341,7.341,0,0,0,6.3,4.077L4.573,2.351A6.315,6.315,0,0,1,7.917.78ZM7.022,8.431A8.778,8.778,0,0,0,5.083,7.1a6.728,6.728,0,0,1,1.222-2.07L8.363,7.091Zm0,.95a8.086,8.086,0,0,1,1.16,1.679,12.293,12.293,0,0,1-3.3.467ZM7.5,8.906l1.341-1.34L10.9,9.624a6.71,6.71,0,0,1-2.071,1.222A8.762,8.762,0,0,0,7.5,8.906ZM9.313,7.091,10.654,5.75a8.825,8.825,0,0,0,1.939,1.328,6.7,6.7,0,0,1-1.221,2.071Zm1.816-1.816L13.275,3.13a12.337,12.337,0,0,1-.468,3.3A8.048,8.048,0,0,1,11.129,5.275ZM10.653,4.8A8.114,8.114,0,0,1,9.495,3.121a12.283,12.283,0,0,1,3.3-.467Zm-.474.474L8.838,6.616,6.78,4.558A6.7,6.7,0,0,1,8.851,3.335,8.711,8.711,0,0,0,10.179,5.274ZM4.869,7.747A8.119,8.119,0,0,1,6.548,8.906L4.4,11.052A12.289,12.289,0,0,1,4.869,7.747Zm3.612,3.936a11.7,11.7,0,0,1,.6,1.779A6.256,6.256,0,0,1,5.027,12.2,12.522,12.522,0,0,0,8.481,11.683ZM9.759,13.4a12.326,12.326,0,0,0-.645-1.941A7.366,7.366,0,0,0,11.373,10.1l1.73,1.73A6.312,6.312,0,0,1,9.759,13.4Zm3.819-2.044L11.852,9.63a7.377,7.377,0,0,0,1.356-2.263,12.348,12.348,0,0,0,1.937.644A6.327,6.327,0,0,1,13.578,11.356Zm1.629-4.023a11.429,11.429,0,0,1-1.777-.6,12.507,12.507,0,0,0,.52-3.45A6.375,6.375,0,0,1,15.207,7.333ZM12.652,1.979A12.566,12.566,0,0,0,9.2,2.5a11.524,11.524,0,0,1-.6-1.78A6.24,6.24,0,0,1,12.652,1.979ZM2.455,7.09c0-.082.009-.162.012-.243a11.611,11.611,0,0,1,1.78.6,12.449,12.449,0,0,0-.52,3.454A6.317,6.317,0,0,1,2.455,7.09Zm.211,6.648L4.1,12.305c6.77,5.827,15.759-3.19,9.954-9.954L15.486.918C23.089,9.7,11.436,21.35,2.666,13.738Zm.261,7.8a2.355,2.355,0,0,1,2.328-2.017h7.167a2.355,2.355,0,0,1,2.328,2.017Z" id="geography"/></g></g></svg>